<?xml version="1.0" encoding="UTF-8" standalone="no"?>
<!-- Created with Inkscape (http://www.inkscape.org/) -->

<svg
   xmlns:dc="http://purl.org/dc/elements/1.1/"
   xmlns:cc="http://creativecommons.org/ns#"
   xmlns:rdf="http://www.w3.org/1999/02/22-rdf-syntax-ns#"
   xmlns:svg="http://www.w3.org/2000/svg"
   xmlns="http://www.w3.org/2000/svg"
   xmlns:sodipodi="http://sodipodi.sourceforge.net/DTD/sodipodi-0.dtd"
   xmlns:inkscape="http://www.inkscape.org/namespaces/inkscape"
   width="640"
   height="480"
   id="svg4699"
   version="1.1"
   inkscape:version="0.48.5 r10040"
   sodipodi:docname="Social_Security_System_(SSS).svg">
  <defs
     id="defs4701" />
  <sodipodi:namedview
     id="base"
     pagecolor="#ffffff"
     bordercolor="#666666"
     borderopacity="1.0"
     inkscape:pageopacity="0.0"
     inkscape:pageshadow="2"
     inkscape:zoom="0.5"
     inkscape:cx="213.47398"
     inkscape:cy="266.6318"
     inkscape:document-units="px"
     inkscape:current-layer="layer1"
     showgrid="false"
     fit-margin-top="0"
     fit-margin-left="0"
     fit-margin-right="0"
     fit-margin-bottom="0"
     inkscape:window-width="1366"
     inkscape:window-height="705"
     inkscape:window-x="-8"
     inkscape:window-y="-8"
     inkscape:window-maximized="1"
     inkscape:snap-bbox="true"
     inkscape:bbox-paths="true"
     inkscape:snap-bbox-edge-midpoints="true"
     inkscape:bbox-nodes="true"
     inkscape:snap-bbox-midpoints="true"
     inkscape:object-paths="true"
     inkscape:snap-intersection-paths="true"
     inkscape:object-nodes="true"
     inkscape:snap-smooth-nodes="true"
     inkscape:snap-object-midpoints="true"
     inkscape:snap-midpoints="true"
     inkscape:snap-center="true"
     showguides="true"
     inkscape:guide-bbox="true"
     inkscape:snap-global="true">
    <sodipodi:guide
       orientation="1,0"
       position="-69.765214,315.38139"
       id="guide5122" />
  </sodipodi:namedview>
  <metadata
     id="metadata4704">
    <rdf:RDF>
      <cc:Work
         rdf:about="">
        <dc:format>image/svg+xml</dc:format>
        <dc:type
           rdf:resource="http://purl.org/dc/dcmitype/StillImage" />
        <dc:title></dc:title>
      </cc:Work>
    </rdf:RDF>
  </metadata>
  <g
     inkscape:label="Layer 1"
     inkscape:groupmode="layer"
     id="layer1"
     transform="translate(525.47449,137.46494)">
    <g
       id="g5461">
      <rect
         ry="39.355366"
         transform="scale(-1,-1)"
         y="-342.53091"
         x="-114.52306"
         height="479.99585"
         width="639.99518"
         id="rect5388-6"
         style="color:#000000;fill:#ffffff;fill-opacity:1;stroke:none;stroke-width:0.54464811;marker:none;visibility:visible;display:inline;overflow:visible;enable-background:accumulate" />
      <path
         inkscape:connector-curvature="0"
         id="rect5388"
         d="m -487.01322,-137.46292 c -21.31465,0 -38.46127,17.53937 -38.46127,39.34224 l 0,293.78308 67.36259,0 240.6967,-293.405515 331.94071,0 0,-0.377565 c 0,-21.80287 -17.146623,-39.34224 -38.461272,-39.34224 l -563.077458,0 z m 354.38261,67.433052 -240.6967,293.405508 -152.14718,0.37757 0,11.62899 157.16708,0 240.6967,-293.405511 242.13622,0 0,-12.006557 -247.15612,0 z m 94.196895,39.719805 -240.696695,293.405523 -246.34408,0.37756 0,11.62899 251.36398,0 240.696692,-293.405516 147.939328,0 0,-12.006557 -152.959225,0 z M 39.59616,9.4097413 -201.10054,302.81526 l -324.37395,0 0,0.37756 c 0,21.80287 17.14662,39.34224 38.46127,39.34224 l 563.077458,0 c 21.314649,0 38.461272,-17.53937 38.461272,-39.34224 l 0,-293.7830787 -74.92935,0 z"
         style="color:#000000;fill:#0038a8;fill-opacity:1;stroke:none;stroke-width:0.54464811;marker:none;visibility:visible;display:inline;overflow:visible;enable-background:accumulate" />
    </g>
    <rect
       style="color:#000000;fill:#0038a8;fill-opacity:1;stroke:#000000;stroke-width:0.10242781;stroke-linecap:butt;stroke-linejoin:miter;stroke-miterlimit:4;stroke-opacity:1;stroke-dasharray:none;stroke-dashoffset:0;marker:none;visibility:visible;display:inline;overflow:visible;enable-background:accumulate"
       id="rect5120"
       width="513.43134"
       height="385.04791"
       x="3546.9006"
       y="663.505"
       ry="40.128059" />
    <path
       style="fill:#ffffff;stroke:#000000;stroke-width:1px;stroke-linecap:butt;stroke-linejoin:miter;stroke-opacity:1"
       d="m 4036.2757,708.43265 4e-4,19.33801 -189.1411,0 -185.2594,220.55799 -115.2835,0 -0.5354,-19.1015 53.4032,5e-4 185.207,-220.545 z"
       id="path4262-1"
       inkscape:connector-curvature="0"
       sodipodi:nodetypes="ccccccccc" />
    <path
       style="fill:#ffffff;stroke:#000000;stroke-width:1px;stroke-linecap:butt;stroke-linejoin:miter;stroke-opacity:1"
       d="m 4036.2761,735.52117 0,19.33849 -106.9044,0 -186.1082,220.863 -197.2068,0 0,-19.08821 119.117,-0.39885 184.9916,-220.46443 z"
       id="path4262-1-3"
       inkscape:connector-curvature="0"
       sodipodi:nodetypes="ccccccccc" />
    <path
       style="fill:none;stroke:#000000;stroke-width:1px;stroke-linecap:butt;stroke-linejoin:miter;stroke-opacity:1"
       d="m 4036.815,762.93035 0.035,19.08836"
       id="path4950"
       inkscape:connector-curvature="0" />
    <path
       style="fill:#ffffff;stroke:#000000;stroke-width:1px;stroke-linecap:butt;stroke-linejoin:miter;stroke-opacity:1"
       d="m 3546.0567,983.78239 200.7166,0 185.3169,-220.85204 104.1855,0 0,19.08836 -47.6288,-0.33506 -179.7752,221.18705 -262.815,0 z"
       id="path5051"
       inkscape:connector-curvature="0"
       sodipodi:nodetypes="ccccccccc" />
    <rect
       style="color:#000000;fill:none;stroke:#000000;stroke-width:0.30020446;stroke-linecap:butt;stroke-linejoin:miter;stroke-miterlimit:4;stroke-opacity:1;stroke-dasharray:none;stroke-dashoffset:0;marker:none;visibility:visible;display:inline;overflow:visible;enable-background:accumulate"
       id="rect5135"
       width="561.38788"
       height="22.926998"
       x="3546.2068"
       y="1043.808"
       ry="0" />
    <rect
       style="color:#000000;fill:none;stroke:#000000;stroke-width:0.30000347;stroke-linecap:butt;stroke-linejoin:miter;stroke-miterlimit:4;stroke-opacity:1;stroke-dasharray:none;stroke-dashoffset:0;marker:none;visibility:visible;display:inline;overflow:visible;enable-background:accumulate"
       id="rect5135-9"
       width="561.388"
       height="9.6472731"
       x="3546.3135"
       y="1067.035"
       ry="0" />
  </g>
</svg>
